<?xml version="1.0" encoding="UTF-8"?>
<svg id="_Слой_2" data-name="Слой 2" xmlns="http://www.w3.org/2000/svg" viewBox="0 0 225.45 262.57">
  <defs>
    <style>
      .cls-1 {
        fill: #5b5b81;
      }

      .cls-1, .cls-2, .cls-3, .cls-4, .cls-5, .cls-6, .cls-7, .cls-8, .cls-9 {
        stroke-width: 0px;
      }

      .cls-2 {
        fill: #333353;
      }

      .cls-3 {
        fill: #fff;
      }

      .cls-4 {
        fill: #e8a27c;
      }

      .cls-5 {
        fill: #ffc99e;
      }

      .cls-6 {
        fill: #ae5c2f;
      }

      .cls-7 {
        fill: #75212c;
      }

      .cls-8 {
        fill: #1d1d1b;
        fill-rule: evenodd;
      }

      .cls-9 {
        fill: #bc5e66;
      }
    </style>
  </defs>
  <g id="_Слой_1-2" data-name="Слой 1">
    <g>
      <path class="cls-5" d="m183.02,184.14c-.97,0-1.85-.56-2.26-1.43-8.13-17.21-39.31-78.69-39.63-79.3h0c-.62-1.23-.13-2.73,1.1-3.35s2.73-.13,3.36,1.1c.31.62,31.53,62.15,39.69,79.43.16.33.24.7.24,1.07,0,1.38-1.12,2.49-2.5,2.49h0Z"/>
      <path class="cls-4" d="m142.23,100.05s0,0,0,0c-1.23.62-1.72,2.12-1.1,3.35,7.71,15.21,15.39,30.44,23.03,45.68l1.59-7.96c-10.1-20.12-19.99-39.62-20.17-39.97-.62-1.23-2.12-1.72-3.35-1.1h0Z"/>
      <path class="cls-2" d="m44.14,64.07h-17.53c-3.97,0-7.41-2.75-8.28-6.62-1.02-4.35-2.36-8.61-4.03-12.76h28.08s1.76,19.38,1.76,19.38Z"/>
      <path class="cls-9" d="m47.14,44.69c2.25,0,4.06,1.82,4.06,4.07v42.28h-8.82v-46.35h4.75s0,0,0,0Z"/>
      <path class="cls-7" d="m51.2,91.04h-8.82v-14.79h8.82v14.79Zm8.47,38.24l-19.12,30.52v-32.47s19.12,1.95,19.12,1.95Z"/>
      <path class="cls-7" d="m40.55,130.08v46.38s15.7,0,15.7,0v-45.08s-15.7-1.3-15.7-1.3Z"/>
      <path class="cls-9" d="m16.31,129.02c0,1.62,1.31,2.93,2.93,2.93h9.84s5.88-5.86,5.88-5.86h-15.71c-1.62,0-2.93,1.31-2.93,2.93Z"/>
      <path class="cls-1" d="m52.37,83.49c3.23.01,6.26,1.61,8.09,4.27,5.92,8.46,8.18,17.72,8.82,25.56l-11.52,18.63h-31.52c16.01-32.37,1.16-48.46,1.16-48.46h24.97Z"/>
      <path class="cls-2" d="m60.07,113.39c-1.46,2.46-4.43,3.59-7.16,2.73-7.47-2.39-14.13-6.8-19.24-12.74.09,7.43-1.68,16.95-7.42,28.56h31.52s11.52-18.63,11.52-18.63c-.31-3.97-1.04-7.89-2.18-11.71l-7.04,11.79h0Z"/>
      <path class="cls-9" d="m101.71,47.62h-19.55c-2.19,0-3.96-1.77-3.96-3.96h0c0-2.19,1.77-3.96,3.96-3.96h7.01s12.55,7.91,12.55,7.91Z"/>
      <path class="cls-1" d="m114.14,39.71c3.18-.01,6.18,1.47,8.09,4.01,13.93,18.69,7.59,41.53,7.59,41.53h-38.26c9.6-29.76-2.39-45.55-2.39-45.55h24.98Z"/>
      <path class="cls-2" d="m131.24,73.98c-17.47,1.92-29.18-7.12-36.17-15.65.62,7.05,0,16.05-3.51,26.92h38.26c.89-3.69,1.37-7.47,1.42-11.27h0Z"/>
      <path class="cls-9" d="m125.89,210h-14.07v-81.72h14.07v81.72Z"/>
      <path class="cls-7" d="m125.89,128.27h-14.07s0,39.43,0,39.43l14.07-7.23v-32.19Zm0,81.72h-14.07v-11.66h14.07v11.66Z"/>
      <path class="cls-4" d="m152.03,158.87s-3.31,16.21-9.64,23.33l-3.17-1.3s9.2-12.8,9.62-29.02l3.18,6.99Zm-73.67,35.97c28.79-14.89,29.13-46.9,29.13-46.9l-5.26,7.94s-5.73,24.31-24.84,34.95l.97,4.01Z"/>
      <path class="cls-5" d="m29.53,173.52c-.63,1-.32,2.32.68,2.95,1,.63,2.32.32,2.95-.68l14.5-23.17c4,2.79,8.98,3.79,13.75,2.76l-8.68,18.83h0c-.49,1.07-.02,2.34,1.05,2.84s2.35.02,2.84-1.05l8.88-19.27c2.18,3.44,5.9,5.6,9.98,5.79-2.74,8.37-5.18,16.3-6.96,23.02-.3,1.14.38,2.31,1.52,2.62,1.14.3,2.32-.38,2.62-1.52,1.96-7.4,4.72-16.28,7.82-25.61.1-.19.16-.39.2-.6,3.94-11.83,8.4-24.32,12.46-35.38.07-.14.12-.28.16-.42,1.86-5.06,3.74-10.11,5.64-15.15.21-.3.35-.65.38-1.01,3.79-10.04,6.41-16.72,6.49-16.92.43-1.1-.11-2.34-1.21-2.77-1.1-.43-2.34.11-2.77,1.21-2.12,5.43-4.21,10.88-6.27,16.34-2.15.16-4.28-.43-6.03-1.68l5.99-12.98c.48-1.06.02-2.32-1.04-2.81-1.07-.5-2.34-.04-2.85,1.02l-6.28,13.62c-2.12.7-4.46.24-6.16-1.21l7.77-12.41c.63-1,.32-2.32-.68-2.95-1-.63-2.32-.32-2.95.68l-8.65,13.82-45.15,72.12h0Zm58.7-47.51c-1.67,4.57-3.32,9.14-4.94,13.72-1.89-.71-4.97-2.52-6.71-7.01l4.96-10.76c1.71,2.06,4.07,3.49,6.7,4.04h0Zm-15.82,5.53c-3.61,1.68-7.81,1.51-11.27-.44l7.38-11.78c2.55,2.3,5.74,2.6,8.58,2.06l-4.68,10.16Zm4.48-25.6c1.82,1.4,4.06,2.13,6.35,2.1l-3.67,7.96c-1.58.84-6.01,2.76-8.72-.42l6.04-9.65h0Zm17.07,4.63c-1.42,3.78-2.83,7.57-4.23,11.36-1.54-.2-4.2-1.06-6.12-4.46l4.1-8.89c1.88,1.18,4.03,1.86,6.25,1.99Zm-26.22,41.33l6.56-14.25c1.79,2.8,4.45,4.94,7.56,6.1-1.69,4.82-3.36,9.68-4.95,14.44-2.06.25-6.5-.04-9.18-6.29Zm-3.95-1.67c-1.95.82-8.14,2.88-13.85-1.25l8.92-14.26c3.37,1.96,7.32,2.66,11.15,2l-6.23,13.51h0Z"/>
      <path class="cls-7" d="m175.54,209.15h-9.22v-24.26h9.22v24.26Zm-20.49,0h-9.22v-24.26h9.22v24.26Z"/>
      <path class="cls-4" d="m29.53,173.52c-.63,1-.32,2.32.68,2.95,1,.63,2.32.32,2.95-.68l14.5-23.17c4,2.79,8.98,3.79,13.75,2.76l-8.68,18.83h0c-.49,1.07-.02,2.34,1.05,2.84,1.07.49,2.35.02,2.84-1.05l8.88-19.27c2.18,3.44,5.9,5.6,9.98,5.79-2.74,8.37-5.18,16.3-6.96,23.02-.3,1.14.38,2.31,1.52,2.62,1.14.3,2.32-.38,2.62-1.52,1.96-7.4,4.72-16.28,7.82-25.61.1-.19.16-.39.2-.6.98-2.96,2-5.96,3.04-8.97-1.31-.62-2.58-1.3-3.82-2.05-1.01,2.92-2.01,5.85-2.99,8.78-2.06.25-6.5-.04-9.18-6.29l4.16-9.02c-1.08-1.18-2.08-2.44-2.98-3.75l-5.12,11.11c-1.95.82-8.14,2.88-13.85-1.25l8.92-14.26c2.63,1.52,5.63,2.29,8.67,2.24-.84-1.43-1.58-2.91-2.22-4.44-1.47-.24-2.88-.72-4.19-1.43l2.4-3.84c-.54-2.03-.93-4.09-1.19-6.17l-32.82,52.42Z"/>
      <path class="cls-9" d="m199.41,188.55h-56.2c-2.69,0-4.87-2.18-4.87-4.86,0-2.69,2.18-4.86,4.87-4.86h56.2v9.72ZM8.87,171.71c-5.47,27.16,8.47,50.62,8.47,50.62h81.21s0-17.3,0-17.3h-1.56c-5.58,0-10.83-2.61-14.2-7.06l-13.56-17.89c-4-5.27-10.23-8.37-16.85-8.37H8.87s0,0,0,0Z"/>
      <path class="cls-7" d="m8.9,198.34c1.52,8.39,4.38,16.49,8.45,23.99h81.21s0-17.3,0-17.3h-1.56c-5.41,0-10.53-2.46-13.91-6.69H8.9Z"/>
      <path class="cls-7" d="m47.15,183.2h0c5.83,0,10.55,4.72,10.55,10.54v19.74h-21.1v-19.74h0c0-5.82,4.72-10.54,10.55-10.54h0Z"/>
      <path class="cls-9" d="m159.76,260.2H38.67s-24.37-55.18-24.37-55.18h172.98c.79,29.06-27.52,55.18-27.52,55.18Z"/>
      <g>
        <path class="cls-7" d="m176.58,239.26c1.26-2.04,2.47-4.18,3.61-6.42H26.59s2.83,6.42,2.83,6.42h147.15Zm-15.41,20.94c2.26-2.32,4.4-4.75,6.41-7.29-1.45.69-3.03,1.05-4.63,1.04-2.35.06-4.63-.73-6.44-2.23l-7.43-6.63c-1.3-1.16-3.26-1.16-4.55,0l-7.44,6.63c-3.78,2.97-9.11,2.97-12.89,0l-7.43-6.63c-1.3-1.16-3.26-1.16-4.55,0l-7.44,6.63c-3.78,2.97-9.1,2.97-12.88,0l-7.44-6.63c-1.3-1.16-3.26-1.16-4.55,0l-7.44,6.63c-3.78,2.97-9.1,2.97-12.88,0l-7.44-6.63c-1.3-1.16-3.26-1.16-4.55,0l-7.44,6.63c-1.57,1.31-3.52,2.08-5.56,2.19l2.58,6.29h124s0,0,0,0Z"/>
        <path class="cls-7" d="m4.09,163.4c3.96.01,7.19,3.16,7.3,7.11,1.82,53.74,32.75,86.02,32.75,86.02-1.7,4.86-5,6.5-10.28,4.63C2.17,241.69,0,163.4,0,163.4h4.09s0,0,0,0Zm221.35,4.3c-6.78,3.79-12.79,8.82-17.72,14.83-8.53,10.37-14.21,22.79-16.48,36.03-6.07,33.82-18.77,41.65-18.77,41.65-11.56,3.68-21.51,3.57-28.38-3.8,25.35-2.1,35.91-35.07,38.78-46.33,1.42-5.72,3.48-11.27,6.14-16.53,5.86-11.39,14.33-21.24,24.71-28.76,2.97-2.11,7.04-1.77,9.62.81l2.1,2.1h0Z"/>
      </g>
      <ellipse class="cls-7" cx="152.03" cy="222.33" rx="6.73" ry="6.73"/>
      <ellipse class="cls-7" cx="102.23" cy="222.33" rx="6.73" ry="6.73"/>
      <ellipse class="cls-7" cx="52.44" cy="222.33" rx="6.73" ry="6.73"/>
      <path class="cls-9" d="m111.82,93.17h-25.26c-2.19,0-3.96-1.77-3.96-3.95h0c0-2.19,1.77-3.96,3.96-3.96h12.71s12.55,7.91,12.55,7.91Z"/>
      <path class="cls-1" d="m131.56,85.25c4.51.01,8.67,2.43,10.91,6.34,17.52,30.31,9.56,67.29,9.56,67.29,0,0-8.49-17.39-23.74-17.39s-26.05,14.4-26.05,14.4c7.89-45.55-2.96-70.64-2.96-70.64h32.29Z"/>
      <path class="cls-2" d="m102.23,155.88s10.8-14.4,26.05-14.4c15.25,0,23.74,17.39,23.74,17.39,1.59-8.69,2.15-17.55,1.66-26.37-26.5-1.79-42.14-15.81-49.42-24.59,1.28,11.74,1.45,27.86-2.03,47.98h0Z"/>
    </g>
    <g>
      <path class="cls-8" d="m135.57,33.76h-50.93V0h50.93c0,1.88-2.06,3.76-2.06,5.64,0,2.37,2.06,4.73,2.06,7.1,0,1.88-2.35,3.99-2.35,5.87,0,1.7,2.35,3.17,2.35,4.87,0,1.52-2.75,3.44-2.75,4.96,0,1.91,2.75,3.42,2.75,5.32Z"/>
      <g>
        <rect class="cls-3" x="99.08" y="15.22" width="19.66" height="2.64" transform="translate(28.92 -59.2) rotate(34.81)"/>
        <circle class="cls-3" cx="118.85" cy="20.75" r="2.22"/>
        <circle class="cls-3" cx="116.51" cy="24.1" r="2.22"/>
        <circle class="cls-3" cx="102" cy="9.25" r="2.22"/>
        <circle class="cls-3" cx="99.67" cy="12.6" r="2.22"/>
        <rect class="cls-3" x="99.08" y="15.82" width="19.66" height="2.64" transform="translate(9.7 65.23) rotate(-34.81)"/>
        <circle class="cls-3" cx="118.85" cy="12.93" r="2.22"/>
        <circle class="cls-3" cx="116.51" cy="9.58" r="2.22"/>
        <circle class="cls-3" cx="102" cy="24.43" r="2.22"/>
        <circle class="cls-3" cx="99.67" cy="21.07" r="2.22"/>
      </g>
      <rect class="cls-6" x="84.64" y="33.77" width="3.97" height="6"/>
    </g>
  </g>
</svg>